# xmcd
#
# Track frame offsets:
#	150
#	20085
#	36617
#	48580
#	72431
#	88354
#	101584
#	114473
#	132551
#	143113
#	158413
#	175700
#
# Disc length: 2478 seconds
# Revision: 1
# Processed by: cddbd v1.5.2PL0 Copyright (c) Steve Scherf et al.
# Submitted via: dBpowerAMP V12.0
#
DISCID=ae09ac0c
DTITLE=The Nouveaux Honkies - Blues For Country
DYEAR=2015
DGENRE=Country
TTITLE0=Blues For Country  
TTITLE1=Life Ain't Easy
TTITLE2=Should Have Loved You
TTITLE3=Pancho and Lefty
TTITLE4=Nobody's Name
TTITLE5=I Know Things You Read About
TTITLE6=Hours Into Days
TTITLE7=She's Nothing But Wrong
TTITLE8=Velvet
TTITLE9=Whiskey's Gettin' Harder to Drink
TTITLE10=Two Doors Down From Paradise
TTITLE11=Two Doors Down From Paradise (reprise)
EXTD=
EXTT0=
EXTT1=
EXTT2=
EXTT3=
EXTT4=
EXTT5=
EXTT6=
EXTT7=
EXTT8=
EXTT9=
EXTT10=
EXTT11=
PLAYORDER=
